<svg id="Can" xmlns="http://www.w3.org/2000/svg" viewBox="0 0 329.76 428.63"><defs><style>.cls-1{fill:#ffe7cb;}.cls-1,.cls-2,.cls-3,.cls-7{stroke:#000;stroke-miterlimit:10;stroke-width:5px;}.cls-2{fill:#71c8de;}.cls-3{fill:#d6e05c;}.cls-4{fill:#e3c9ad;}.cls-5{fill:#49aabd;}.cls-6{fill:#b8c23f;}.cls-7{fill:none;}</style></defs><title>Can</title><path class="cls-1" d="M369.09,55.27,351.14,43.71a7,7,0,0,0-9.68,2.09L322.29,75.58a7,7,0,0,0,2.1,9.67l17.95,11.56A7,7,0,0,0,352,94.72l19.17-29.78A7,7,0,0,0,369.09,55.27Zm-7.55,11.39-3.89,6.07A7,7,0,0,1,348,74.82L342.08,71a7,7,0,0,1-2.1-9.67l3.91-6.06a7,7,0,0,1,9.67-2.09L359.45,57A7,7,0,0,1,361.54,66.66Z" transform="translate(-57.96 -30.51)"/><rect class="cls-1" x="98.04" y="52.84" width="229.22" height="373.29" rx="11.62"/><rect class="cls-2" x="98.04" y="88.86" width="229.22" height="297.98"/><path class="cls-3" d="M339.34,201.22a94.88,94.88,0,0,0-137.46,0H156V335.48h49.15a94.9,94.9,0,0,0,130.92,0h49.15V201.22Zm-68.73,131A62.22,62.22,0,1,1,332.82,270,62.23,62.23,0,0,1,270.61,332.2Z" transform="translate(-57.96 -30.51)"/><circle class="cls-3" cx="212.65" cy="239.48" r="62.22"/><circle class="cls-3" cx="212.65" cy="239.48" r="62.22"/><circle class="cls-1" cx="212.65" cy="239.48" r="62.22"/><path class="cls-4" d="M384.22,96.82V442.53A11.55,11.55,0,0,1,372.6,454H347V85.34h25.6A11.56,11.56,0,0,1,384.22,96.82Z" transform="translate(-57.96 -30.51)"/><rect class="cls-5" x="289.04" y="90.5" width="37.22" height="295.08"/><path class="cls-6" d="M347,202.07V335h37.22v-133Z" transform="translate(-57.96 -30.51)"/><polygon class="cls-3" points="19.52 5.21 24.57 14.46 33.82 19.52 24.57 24.57 19.52 33.82 14.46 24.57 5.21 19.52 14.46 14.46 19.52 5.21"/><polygon class="cls-3" points="19.52 57.66 24.57 66.91 33.82 71.97 24.57 77.03 19.52 86.27 14.46 77.03 5.21 71.97 14.46 66.91 19.52 57.66"/><polygon class="cls-3" points="67.2 24.28 75.63 39.7 91.04 48.13 75.63 56.55 67.2 71.97 58.77 56.55 43.36 48.13 58.77 39.7 67.2 24.28"/><line class="cls-7" x1="285.01" y1="88.86" x2="327.32" y2="88.86"/><line class="cls-7" x1="286.01" y1="170.86" x2="328.32" y2="170.86"/><line class="cls-7" x1="284.01" y1="304.86" x2="326.32" y2="304.86"/><line class="cls-7" x1="287.01" y1="386.86" x2="329.32" y2="386.86"/></svg>