<svg id="Eyedropper" xmlns="http://www.w3.org/2000/svg" viewBox="0 0 404.05 397.03"><defs><style>.cls-1{fill:#71c8de;}.cls-1,.cls-2,.cls-3,.cls-4,.cls-5,.cls-6,.cls-7{stroke:#000;stroke-miterlimit:10;}.cls-1,.cls-2,.cls-3{stroke-width:4.02px;}.cls-2{fill:none;}.cls-3{fill:#ccd559;}.cls-4{fill:#8b786f;}.cls-4,.cls-5,.cls-6,.cls-7{stroke-width:5px;}.cls-5{fill:#ff6372;}.cls-6{fill:#ffe7cb;}.cls-7{fill:#d6e05c;}</style></defs><title>Eyedropper</title><ellipse class="cls-1" cx="324.71" cy="150.58" rx="17.72" ry="26.58" transform="translate(-73.46 12.05) rotate(-13.76)"/><ellipse class="cls-1" cx="359.66" cy="184.49" rx="17.72" ry="26.58" transform="matrix(0.14, -0.99, 0.99, 0.14, 78.97, 444.78)"/><ellipse class="cls-1" cx="357.66" cy="151.53" rx="15.4" ry="10.27" transform="translate(-52.43 219.95) rotate(-43.76)"/><ellipse class="cls-1" cx="286.25" cy="192.11" rx="17.72" ry="26.58" transform="translate(-84.44 4.09) rotate(-13.76)"/><ellipse class="cls-1" cx="321.19" cy="226.02" rx="17.72" ry="26.58" transform="translate(4.86 442.33) rotate(-81.83)"/><ellipse class="cls-1" cx="320.18" cy="194.57" rx="15.4" ry="10.27" transform="translate(-92.6 205.98) rotate(-43.76)"/><ellipse class="cls-1" cx="246.06" cy="230.5" rx="17.72" ry="26.58" transform="translate(-94.72 -4.37) rotate(-13.76)"/><ellipse class="cls-1" cx="281" cy="264.42" rx="17.72" ry="26.58" transform="translate(-67.62 435.49) rotate(-81.83)"/><ellipse class="cls-1" cx="279.99" cy="232.96" rx="15.4" ry="10.27" transform="matrix(0.72, -0.69, 0.69, 0.72, -130.31, 188.85)"/><path class="cls-2" d="M256.38,422.32s76.63-87.58,94.07-93.55" transform="translate(-46.96 -69.51)"/><ellipse class="cls-3" cx="399.72" cy="298.69" rx="54.43" ry="8.86" transform="translate(-142.75 170.37) rotate(-30)"/><ellipse class="cls-3" cx="349.08" cy="283.5" rx="54.43" ry="8.86" transform="translate(-76.46 456.7) rotate(-71.74)"/><ellipse class="cls-3" cx="394.65" cy="346.79" rx="8.86" ry="54.43" transform="translate(-20.63 651.92) rotate(-86.79)"/><ellipse class="cls-3" cx="312.24" cy="312" rx="54.43" ry="8.86" transform="translate(-97.55 493.88) rotate(-79.69)"/><ellipse class="cls-3" cx="364.29" cy="370.87" rx="54.43" ry="8.86" transform="translate(-76.38 -38.11) rotate(-4.74)"/><ellipse class="cls-3" cx="276.79" cy="344.92" rx="54.43" ry="8.86" transform="translate(-159.03 486.03) rotate(-79.69)"/><ellipse class="cls-3" cx="328.85" cy="403.78" rx="54.43" ry="8.86" transform="translate(-79.22 -40.93) rotate(-4.74)"/><rect class="cls-4" x="129.77" y="19.81" width="36.71" height="107.06" rx="5.83"/><rect class="cls-5" x="83.53" y="155.21" width="129.11" height="239.32" rx="8.91"/><rect class="cls-6" x="83.53" y="211.89" width="129.11" height="129.11"/><rect class="cls-4" x="105.3" y="130.02" width="85.65" height="25.19"/><rect class="cls-4" x="96.12" y="98.53" width="107.06" height="31.49"/><path class="cls-7" d="M221.81,355c0,21.69-11.28,30.86-25.2,30.86S171.42,376.7,171.42,355s11.28-47.68,25.19-47.68S221.81,333.33,221.81,355Z" transform="translate(-46.96 -69.51)"/><polygon class="cls-7" points="19.52 5.21 24.57 14.46 33.82 19.52 24.57 24.57 19.52 33.82 14.46 24.57 5.21 19.52 14.46 14.46 19.52 5.21"/><polygon class="cls-7" points="19.52 57.66 24.57 66.91 33.82 71.97 24.57 77.03 19.52 86.27 14.46 77.03 5.21 71.97 14.46 66.91 19.52 57.66"/><polygon class="cls-7" points="67.2 24.28 75.63 39.7 91.04 48.13 75.63 56.55 67.2 71.97 58.77 56.55 43.36 48.13 58.77 39.7 67.2 24.28"/></svg>