<svg id="Milk" xmlns="http://www.w3.org/2000/svg" viewBox="0 0 342.18 451.44"><defs><style>.cls-1{fill:#71c8de;}.cls-1,.cls-2,.cls-3,.cls-5{stroke:#000;stroke-miterlimit:10;}.cls-1,.cls-2,.cls-5{stroke-width:5px;}.cls-2,.cls-3{fill:#ffe7cb;}.cls-3{stroke-width:5.53px;}.cls-4{font-size:81px;font-family:MyriadPro-Regular, Myriad Pro;}.cls-5{fill:#d6e05c;}</style></defs><title>Milk</title><path class="cls-1" d="M378.37,188.74V450.18a31.3,31.3,0,0,1-31.13,31.27H152.68a31.3,31.3,0,0,1-31.13-31.27V188.74Z" transform="translate(-38.96 -32.51)"/><path class="cls-1" d="M149.59,106c0-16,11-29,24.36-29H326.12c13.38,0,24.35,13.07,24.35,29" transform="translate(-38.96 -32.51)"/><polygon class="cls-2" points="337.55 155.93 84.6 155.93 110.19 73.32 311.96 73.32 337.55 155.93"/><path class="cls-3" d="M121.69,187.67V335s14.5-40.81,40.47-18.91S198.4,341,205.64,330s16.91-32.85,26-19.91,7.25,35.83,36.84,23.89,51.34-22.9,66.44,11.94,37.44,22.9,43.48-9.95V187.67Z" transform="translate(-38.96 -32.51)"/><text class="cls-4" transform="translate(126.57 246.38)">MILK</text><polygon class="cls-5" points="19.52 5.21 24.57 14.46 33.82 19.52 24.57 24.57 19.52 33.82 14.46 24.57 5.21 19.52 14.46 14.46 19.52 5.21"/><polygon class="cls-5" points="19.52 57.66 24.57 66.91 33.82 71.97 24.57 77.03 19.52 86.27 14.46 77.03 5.21 71.97 14.46 66.91 19.52 57.66"/><polygon class="cls-5" points="67.2 24.28 75.63 39.7 91.04 48.13 75.63 56.55 67.2 71.97 58.77 56.55 43.36 48.13 58.77 39.7 67.2 24.28"/></svg>