<svg id="Mobile" xmlns="http://www.w3.org/2000/svg" viewBox="0 0 395.73 465.99"><defs><style>.cls-1,.cls-5{fill:#d6e05c;}.cls-1,.cls-2,.cls-3,.cls-5{stroke:#000;stroke-miterlimit:10;}.cls-1,.cls-2,.cls-3{stroke-width:10px;}.cls-2{fill:#71c8de;}.cls-3{fill:#ff6372;}.cls-4{fill:#49aabd;}.cls-5{stroke-width:5px;}</style></defs><title>Mobile</title><path class="cls-1" d="M111.79,21.49H388.7a2,2,0,0,1,2,2v435a2.44,2.44,0,0,1-2.44,2.44H111.79a2.44,2.44,0,0,1-2.44-2.44V23.94a2.44,2.44,0,0,1,2.44-2.44Z"/><path class="cls-2" d="M140.61,45.47H359.88a2,2,0,0,1,2,2V394.63a2.44,2.44,0,0,1-2.44,2.44H140.61a2.44,2.44,0,0,1-2.44-2.44V47.91a2.44,2.44,0,0,1,2.44-2.44Z"/><circle class="cls-3" cx="250.04" cy="429.03" r="15.98"/><path class="cls-4" d="M341.91,396.25H363a5.58,5.58,0,0,0,5.54-5.54V60.84A5.57,5.57,0,0,0,363,55.3h-21.1Z" transform="translate(-11.96 -4.51)"/><polygon class="cls-5" points="19.52 5.21 24.57 14.46 33.82 19.52 24.57 24.57 19.52 33.82 14.46 24.57 5.21 19.52 14.46 14.46 19.52 5.21"/><polygon class="cls-5" points="19.52 57.66 24.57 66.91 33.82 71.97 24.57 77.03 19.52 86.27 14.46 77.03 5.21 71.97 14.46 66.91 19.52 57.66"/><polygon class="cls-5" points="67.2 24.28 75.63 39.7 91.04 48.13 75.63 56.55 67.2 71.97 58.77 56.55 43.36 48.13 58.77 39.7 67.2 24.28"/></svg>