<svg id="Snacks" xmlns="http://www.w3.org/2000/svg" viewBox="0 0 444.89 433.5"><defs><style>.cls-1{fill:#d6e05c;}.cls-1,.cls-2,.cls-3,.cls-4,.cls-5{stroke:#000;stroke-miterlimit:10;stroke-width:5px;}.cls-2{fill:#ff6372;}.cls-3{fill:#71c8de;}.cls-4{fill:#8b786f;}.cls-5{fill:#ffe7cb;}</style></defs><title>Snacks</title><circle class="cls-1" cx="364.47" cy="74.89" r="35.16"/><path class="cls-2" d="M463.76,451.5H116.61a30.29,30.29,0,0,1,9-21.57,30.84,30.84,0,0,1,21.77-9H432.94A30.75,30.75,0,0,1,463.76,451.5Z" transform="translate(-22.06 -20.5)"/><path class="cls-2" d="M117.3,98.29H464.45a30.29,30.29,0,0,1-9.05,21.57,30.84,30.84,0,0,1-21.77,9H148.12A30.75,30.75,0,0,1,117.3,98.29Z" transform="translate(-22.06 -20.5)"/><rect class="cls-3" x="121.43" y="107.9" width="292.24" height="292.56"/><rect class="cls-4" x="121.43" y="207.13" width="292.33" height="73.14"/><circle class="cls-5" cx="266.87" cy="243.34" r="64.78"/><circle class="cls-1" cx="202.44" cy="41.11" r="35.16"/><circle class="cls-1" cx="141.08" cy="152.8" r="35.16"/><circle class="cls-1" cx="37.66" cy="37.66" r="35.16"/><circle class="cls-1" cx="51.45" cy="172.8" r="35.16"/><polygon class="cls-1" points="36.41 291.21 41.47 300.46 50.72 305.52 41.47 310.58 36.41 319.83 31.35 310.58 22.11 305.52 31.35 300.46 36.41 291.21"/><polygon class="cls-1" points="36.41 343.67 41.47 352.92 50.72 357.97 41.47 363.03 36.41 372.28 31.35 363.03 22.11 357.97 31.35 352.92 36.41 343.67"/><polygon class="cls-1" points="84.09 310.29 92.52 325.7 107.94 334.13 92.52 342.56 84.09 357.97 75.66 342.56 60.25 334.13 75.66 325.7 84.09 310.29"/></svg>