<svg id="Tree" xmlns="http://www.w3.org/2000/svg" viewBox="0 0 429.83 410.68"><defs><style>.cls-1{fill:#ffe7cb;}.cls-1,.cls-3,.cls-4,.cls-5{stroke:#000;stroke-miterlimit:10;}.cls-1,.cls-3,.cls-4{stroke-width:10px;}.cls-2{fill:#e3c9ad;}.cls-3,.cls-5{fill:#d6e05c;}.cls-4{fill:none;stroke-linecap:round;}.cls-5{stroke-width:5px;}</style></defs><title>Tree</title><path class="cls-1" d="M201.35,449.77l93-2.38v-90.6l38.14-76.3-19.07-19.07L287.19,302s-19.08,14.31-19.08-9.53V240H230l-4.76,42.92s0,33.38-23.85,4.77S182.28,240,182.28,240l-23.84,42.92,42.91,76.29Z" transform="translate(-41.38 -44.23)"/><polygon class="cls-2" points="286.33 237.46 248.19 310.82 248.19 397.93 229.12 398.39 229.12 301.65 275.18 226.73 286.33 237.46"/><path class="cls-3" d="M424.09,186.41a73.9,73.9,0,1,1-131.8,66.86,73.83,73.83,0,0,1-84.12-11.73,64.36,64.36,0,0,1-128.41-6.35,59.7,59.7,0,0,1,.72-9.29,73.87,73.87,0,0,1,26.94-135A73.88,73.88,0,0,1,228,76.45,83.3,83.3,0,0,1,349.6,74.79,68.12,68.12,0,0,1,373,70.69a69.12,69.12,0,0,1,51.07,115.72Z" transform="translate(-41.38 -44.23)"/><path class="cls-4" d="M201.62,148.36a73.88,73.88,0,0,1,24-70.11" transform="translate(-41.38 -44.23)"/><path class="cls-4" d="M378.69,207.74a73.91,73.91,0,0,1-80.49-66.68" transform="translate(-41.38 -44.23)"/><path class="cls-4" d="M113.3,179.31a73.91,73.91,0,0,1,97.43,37.86" transform="translate(-41.38 -44.23)"/><polygon class="cls-5" points="353.09 293.49 358.15 302.74 367.4 307.79 358.15 312.85 353.09 322.1 348.04 312.85 338.79 307.79 348.04 302.74 353.09 293.49"/><polygon class="cls-5" points="353.09 345.94 358.15 355.19 367.4 360.25 358.15 365.3 353.09 374.55 348.04 365.3 338.79 360.25 348.04 355.19 353.09 345.94"/><polygon class="cls-5" points="400.78 312.56 409.21 327.97 424.62 336.4 409.21 344.83 400.78 360.25 392.35 344.83 376.94 336.4 392.35 327.97 400.78 312.56"/></svg>